<?xml version="1.0" standalone="no"?>
<!DOCTYPE svg PUBLIC "-//W3C//DTD SVG 20010904//EN"
 "http://www.w3.org/TR/2001/REC-SVG-20010904/DTD/svg10.dtd">
<svg version="1.0" xmlns="http://www.w3.org/2000/svg"
 width="878.000000pt" height="1000.000000pt" viewBox="0 0 878.000000 1000.000000"
 preserveAspectRatio="xMidYMid meet">
<metadata>
Created by potrace 1.16, written by Peter Selinger 2001-2019
</metadata>
<g transform="translate(0.000000,1000.000000) scale(0.100000,-0.100000)"
fill="#000000" stroke="none">
<path d="M2975 6500 c-64 -14 -95 -28 -160 -75 -130 -93 -226 -260 -265 -465
-93 -483 57 -967 356 -1153 55 -34 124 -56 209 -67 215 -27 434 112 539 343
125 273 110 717 -34 1025 -91 194 -206 307 -377 369 -71 26 -204 37 -268 23z"/>
<path d="M5484 6470 c-99 -14 -211 -66 -293 -134 -130 -109 -233 -311 -288
-567 -21 -101 -24 -406 -4 -509 61 -321 267 -534 531 -548 335 -17 600 273
680 744 28 162 24 371 -9 499 -74 282 -255 479 -472 515 -70 11 -71 11 -145 0z"/>
<path d="M1613 4670 c-107 -28 -193 -75 -193 -106 0 -25 47 -44 158 -64 150
-27 215 -53 275 -109 69 -64 101 -130 101 -209 1 -59 -1 -66 -32 -93 -37 -34
-80 -38 -156 -15 -105 32 -186 120 -268 294 -37 79 -52 103 -66 100 -32 -6
-46 -73 -46 -228 0 -131 3 -153 27 -225 15 -44 40 -103 57 -132 37 -65 126
-161 213 -230 87 -70 88 -86 10 -148 -32 -25 -67 -45 -78 -45 -34 0 -145 72
-209 136 -67 66 -112 142 -147 249 -20 61 -23 90 -24 234 0 188 -3 194 -73
173 -54 -16 -138 -75 -134 -93 2 -8 0 -11 -4 -7 -9 10 -35 -12 -28 -23 3 -5
-2 -12 -10 -15 -9 -3 -13 -10 -10 -15 3 -5 0 -9 -6 -9 -16 0 -57 -94 -80 -185
-11 -43 -25 -139 -31 -214 -14 -176 -20 -205 -43 -209 -10 -2 -60 25 -116 63
-67 46 -105 66 -121 63 -23 -3 -24 -6 -24 -85 l1 -82 -56 -6 c-100 -12 -227
-46 -297 -79 -118 -57 -225 -173 -194 -210 19 -23 75 -20 187 9 98 26 163 30
273 19 77 -9 69 -22 -35 -60 l-75 -27 -69 28 c-57 23 -72 26 -85 15 -42 -35
12 -166 109 -265 168 -171 364 -237 861 -290 253 -26 237 -23 223 -48 -18 -33
-109 -127 -148 -152 -19 -12 -80 -39 -135 -60 -116 -44 -177 -73 -187 -89 -11
-17 22 -47 81 -73 136 -61 375 -90 599 -73 128 10 274 36 335 59 16 6 29 11
30 11 1 0 2 -66 2 -148 0 -125 3 -158 23 -219 25 -79 77 -156 108 -161 19 -3
23 8 44 104 15 69 31 116 45 132 l22 25 25 -54 c42 -91 113 -159 168 -159 25
0 32 17 61 145 24 112 53 183 107 267 38 59 52 70 52 43 0 -52 78 -142 154
-176 103 -47 160 -8 295 196 36 55 256 378 267 393 1 2 19 -1 39 -8 28 -9 35
-16 30 -29 -36 -90 -204 -563 -208 -586 -4 -16 -1 -43 6 -59 12 -27 10 -35
-19 -90 -60 -114 -69 -166 -69 -411 1 -225 14 -361 65 -663 36 -208 48 -230
162 -282 67 -30 101 -36 133 -24 23 9 61 89 115 244 81 231 109 298 221 533
60 126 109 232 109 238 0 5 19 9 43 8 23 -1 87 8 142 21 133 30 360 33 483 6
45 -9 106 -16 134 -15 45 3 52 0 63 -22 7 -13 66 -103 130 -199 92 -137 146
-233 251 -445 73 -149 142 -279 154 -290 19 -17 35 -20 112 -18 108 3 157 22
172 68 5 17 10 210 10 450 1 369 -1 430 -17 504 -21 98 -63 208 -118 308 -39
72 -39 73 -23 105 20 38 20 39 -83 315 l-74 201 24 39 c14 21 30 55 37 76 7
21 18 41 25 43 7 3 37 -19 67 -49 68 -68 127 -99 193 -102 40 -1 62 -10 110
-42 88 -59 136 -81 193 -89 l50 -6 69 62 c63 59 128 122 101 100 -17 -14 -28
-12 -28 4 0 7 -7 19 -15 26 -9 7 -13 15 -10 18 3 3 14 -3 25 -13 20 -18 20
-18 20 36 0 69 -29 129 -104 220 l-55 66 117 6 c150 7 227 32 289 93 24 24 43
51 43 61 0 24 74 -48 108 -106 30 -52 62 -160 62 -213 0 -23 7 -45 18 -56 9
-10 37 -40 60 -66 l44 -48 25 24 c38 36 110 193 139 304 29 111 29 223 1 301
l-16 42 27 3 c23 3 28 8 30 38 8 78 -47 169 -137 231 -28 18 -51 36 -51 39 0
3 33 13 73 22 168 41 162 107 -14 144 -41 8 -75 16 -76 18 -2 2 2 17 8 34 17
51 8 210 -16 257 -30 60 -53 54 -93 -23 -39 -73 -70 -92 -108 -67 -24 15 -26
23 -44 160 -15 111 -44 204 -79 252 -33 45 -124 97 -163 91 -22 -3 -23 -6 -28
-138 -7 -157 -26 -216 -91 -274 -83 -76 -392 -196 -503 -196 -43 0 -71 18
-168 107 -32 29 -60 53 -63 53 -3 0 -37 -9 -77 -20 -199 -54 -457 -74 -928
-74 -342 0 -597 11 -779 34 -53 7 -45 8 39 3 115 -6 135 4 24 12 -38 3 -82 10
-99 15 -24 7 -121 25 -245 45 -58 9 -96 19 -101 28 -4 5 -9 5 -13 -2 -5 -7 6
-17 26 -26 18 -8 27 -14 21 -15 -22 0 -153 62 -148 71 3 4 0 11 -6 15 -8 4 -9
3 -5 -5 14 -22 -25 -23 -80 -2 -70 27 -154 82 -178 118 -10 15 -61 60 -114 98
-123 90 -261 227 -340 336 -68 94 -73 97 -197 128 -217 54 -456 67 -592 31z"/>
<path d="M6800 2037 c-11 -11 15 -326 28 -339 19 -19 15 -31 -41 -103 -48 -63
-122 -122 -155 -124 -19 -1 -782 512 -782 525 0 3 5 2 11 -2 8 -4 8 0 0 15 -7
11 -18 21 -26 21 -15 0 -30 -34 -20 -49 14 -24 801 -552 817 -549 7 2 12 -4
13 -12 0 -19 32 -25 50 -10 11 9 14 6 17 -16 3 -24 59 -66 428 -316 234 -159
435 -291 447 -295 13 -3 23 -9 23 -13 0 -4 42 -36 93 -71 50 -34 180 -124 287
-199 221 -154 622 -423 691 -463 44 -26 99 -36 99 -19 0 5 -12 15 -27 22 -87
44 -978 631 -1045 689 -13 11 -40 262 -41 366 l0 100 -10 -93 c-6 -58 -6 -133
-1 -203 5 -61 6 -115 3 -121 -7 -11 -60 22 -354 223 -100 68 -263 180 -364
249 -250 171 -228 150 -212 197 7 21 35 72 61 113 27 41 63 110 80 154 17 43
38 93 47 110 8 17 11 27 5 21 -6 -5 -24 -38 -42 -72 -17 -35 -35 -63 -41 -63
-5 0 -9 21 -10 48 -1 71 -23 284 -29 279z"/>
</g>
</svg>
